<?xml version="1.0" standalone="no"?>
<!DOCTYPE svg PUBLIC "-//W3C//DTD SVG 20010904//EN"
 "http://www.w3.org/TR/2001/REC-SVG-20010904/DTD/svg10.dtd">
<svg version="1.0" xmlns="http://www.w3.org/2000/svg"
 width="201.000000pt" height="201.000000pt" viewBox="0 0 201.000000 201.000000"
 preserveAspectRatio="xMidYMid meet">
<metadata>
Created by potrace 1.11, written by Peter Selinger 2001-2013
</metadata>
<g transform="translate(0.000000,201.000000) scale(0.100000,-0.100000)"
fill="#000000" stroke="none">
<path d="M880 1997 c-3 -3 -23 -7 -45 -11 -194 -27 -421 -149 -563 -301 -56
-59 -137 -176 -164 -235 -53 -114 -79 -194 -97 -290 -10 -59 -5 -292 8 -355
67 -314 276 -577 565 -711 130 -60 252 -87 396 -88 114 0 223 9 243 21 4 2 20
6 35 9 32 5 83 25 172 66 193 89 363 255 460 448 80 160 111 302 106 485 -8
261 -103 482 -291 670 -148 149 -292 226 -527 281 -32 8 -292 17 -298 11z"/>
</g>
</svg>
