<?xml version="1.0" standalone="no"?>
<!DOCTYPE svg PUBLIC "-//W3C//DTD SVG 20010904//EN"
 "http://www.w3.org/TR/2001/REC-SVG-20010904/DTD/svg10.dtd">
<svg version="1.0" xmlns="http://www.w3.org/2000/svg"
 width="260.000000pt" height="260.000000pt" viewBox="0 0 260.000000 260.000000"
 preserveAspectRatio="xMidYMid meet">
<metadata>
Created by potrace 1.11, written by Peter Selinger 2001-2013
</metadata>
<g transform="translate(0.000000,260.000000) scale(0.100000,-0.100000)"
fill="#000000" stroke="none">
<path d="M1169 2596 c-2 -2 -24 -6 -49 -10 -413 -53 -784 -318 -978 -698 -47
-92 -104 -254 -117 -328 -3 -19 -9 -55 -13 -80 -9 -58 -9 -279 0 -350 70 -550
480 -988 1038 -1107 130 -27 382 -25 519 6 315 69 576 236 770 491 178 235
264 504 256 805 -4 155 -5 166 -34 288 -95 398 -389 737 -778 894 -145 58
-275 84 -454 89 -85 3 -157 3 -160 0z m290 -170 c540 -72 964 -548 975 -1095
7 -324 -102 -598 -329 -827 -138 -140 -259 -216 -450 -283 -49 -18 -91 -31
-93 -31 -1 1 -33 -4 -70 -11 -130 -24 -340 -15 -472 21 -41 11 -83 23 -93 25
-10 2 -64 26 -120 53 -333 159 -569 477 -630 847 -12 73 -15 282 -4 330 6 24
19 102 19 112 1 22 65 188 98 253 83 166 252 349 409 443 144 88 318 150 456
163 33 3 61 7 63 9 5 4 192 -3 241 -9z"/>
<path d="M1555 1987 c-128 -43 -214 -141 -232 -269 -9 -59 -9 -779 0 -844 13
-98 89 -197 187 -243 49 -23 67 -26 170 -26 112 0 117 1 178 34 84 46 144 120
167 206 5 17 9 136 10 265 2 224 -2 264 -27 281 -6 4 -85 6 -176 6 -155 0
-167 -1 -187 -21 -17 -17 -20 -31 -18 -81 3 -82 18 -94 123 -92 44 0 82 -2 86
-5 3 -3 6 -72 6 -152 0 -160 -8 -187 -64 -229 -40 -30 -162 -30 -205 1 -64 45
-64 48 -61 494 3 441 2 432 64 473 36 23 145 27 186 6 48 -24 78 -74 78 -132
0 -69 22 -89 98 -89 84 1 97 15 96 98 -2 131 -69 239 -184 298 -48 24 -68 28
-155 31 -64 2 -115 -2 -140 -10z"/>
<path d="M585 1966 c-20 -14 -20 -26 -20 -666 0 -640 0 -652 20 -666 16 -13
56 -15 225 -12 201 3 206 4 262 31 102 50 169 140 185 249 10 67 9 759 -1 812
-19 99 -91 190 -186 235 -53 25 -63 26 -260 29 -169 3 -209 1 -225 -12z m425
-206 c59 -42 60 -52 60 -452 0 -220 -4 -378 -10 -400 -7 -24 -24 -48 -46 -65
-33 -25 -42 -27 -145 -28 l-109 -1 0 487 0 487 109 -2 c95 -2 112 -5 141 -26z"/>
</g>
</svg>
